HIERARCHY
ROOT Hips
{
	OFFSET 0.00000 0.00000 0.00000
	CHANNELS 6 Xposition Yposition Zposition Zrotation Yrotation Xrotation 
	JOINT LHipJoint
	{
		OFFSET 0 0 0
		CHANNELS 3 Zrotation Yrotation Xrotation
		JOINT LeftUpLeg
		{
			OFFSET 1.46561 -1.72757 0.83774
			CHANNELS 3 Zrotation Yrotation Xrotation
			JOINT LeftLeg
			{
				OFFSET 2.48915 -6.83890 0.00000
				CHANNELS 3 Zrotation Yrotation Xrotation
				JOINT LeftFoot
				{
					OFFSET 2.60555 -7.15868 0.00000
					CHANNELS 3 Zrotation Yrotation Xrotation
					JOINT LeftToeBase
					{
						OFFSET 0.19248 -0.52884 2.26738
						CHANNELS 3 Zrotation Yrotation Xrotation
						End Site
						{
							OFFSET 0.00000 -0.00000 1.17015
						}
					}
				}
			}
		}
	}
	JOINT RHipJoint
	{
		OFFSET 0 0 0
		CHANNELS 3 Zrotation Yrotation Xrotation
		JOINT RightUpLeg
		{
			OFFSET -1.46918 -1.72757 0.83774
			CHANNELS 3 Zrotation Yrotation Xrotation
			JOINT RightLeg
			{
				OFFSET -2.49034 -6.84216 0.00000
				CHANNELS 3 Zrotation Yrotation Xrotation
				JOINT RightFoot
				{
					OFFSET -2.65971 -7.30750 0.00000
					CHANNELS 3 Zrotation Yrotation Xrotation
					JOINT RightToeBase
					{
						OFFSET -0.19227 -0.52827 2.30785
						CHANNELS 3 Zrotation Yrotation Xrotation
						End Site
						{
							OFFSET -0.00000 -0.00000 1.18972
						}
					}
				}
			}
		}
	}
	JOINT LowerBack
	{
		OFFSET 0 0 0
		CHANNELS 3 Zrotation Yrotation Xrotation
		JOINT Spine
		{
			OFFSET 0.02432 2.19909 -0.28000
			CHANNELS 3 Zrotation Yrotation Xrotation
			JOINT Spine1
			{
				OFFSET 0.03714 2.21816 -0.15261
				CHANNELS 3 Zrotation Yrotation Xrotation
				JOINT Neck
				{
					OFFSET 0 0 0
					CHANNELS 3 Zrotation Yrotation Xrotation
					JOINT Neck1
					{
						OFFSET -0.01896 1.56165 0.21681
						CHANNELS 3 Zrotation Yrotation Xrotation
						JOINT Head
						{
							OFFSET 0.02744 1.56009 0.06764
							CHANNELS 3 Zrotation Yrotation Xrotation
							End Site
							{
								OFFSET 0.01212 1.60574 0.00298
							}
						}
					}
				}
				JOINT LeftShoulder
				{
					OFFSET 0 0 0
					CHANNELS 3 Zrotation Yrotation Xrotation
					JOINT LeftArm
					{
						OFFSET 3.05595 1.48048 -0.60794
						CHANNELS 3 Zrotation Yrotation Xrotation
						JOINT LeftForeArm
						{
							OFFSET 5.20607 -0.00000 -0.00000
							CHANNELS 3 Zrotation Yrotation Xrotation
							JOINT LeftHand
							{
								OFFSET 3.39961 -0.00000 0.00000
								CHANNELS 3 Zrotation Yrotation Xrotation
								JOINT LeftFingerBase
								{
									OFFSET 0 0 0
									CHANNELS 3 Zrotation Yrotation Xrotation
									JOINT LeftHandIndex1
									{
										OFFSET 0.51969 -0.00000 0.00000
										CHANNELS 3 Zrotation Yrotation Xrotation
										End Site
										{
											OFFSET 0.41899 -0.00000 0.00000
										}
									}
								}
								JOINT LThumb
								{
									OFFSET 0 0 0
									CHANNELS 3 Zrotation Yrotation Xrotation
									End Site
									{
										OFFSET 0.42539 -0.00000 0.42539
									}
								}
							}
						}
					}
				}
				JOINT RightShoulder
				{
					OFFSET 0 0 0
					CHANNELS 3 Zrotation Yrotation Xrotation
					JOINT RightArm
					{
						OFFSET -2.99052 1.57608 -0.69102
						CHANNELS 3 Zrotation Yrotation Xrotation
						JOINT RightForeArm
						{
							OFFSET -5.32214 -0.00000 0.00000
							CHANNELS 3 Zrotation Yrotation Xrotation
							JOINT RightHand
							{
								OFFSET -3.51208 -0.00000 0.00000
								CHANNELS 3 Zrotation Yrotation Xrotation
								JOINT RightFingerBase
								{
									OFFSET 0 0 0
									CHANNELS 3 Zrotation Yrotation Xrotation
									JOINT RightHandIndex1
									{
										OFFSET -0.58668 -0.00000 0.00000
										CHANNELS 3 Zrotation Yrotation Xrotation
										End Site
										{
											OFFSET -0.47300 -0.00000 0.00000
										}
									}
								}
								JOINT RThumb
								{
									OFFSET 0 0 0
									CHANNELS 3 Zrotation Yrotation Xrotation
									End Site
									{
										OFFSET -0.48022 -0.00000 0.48022
									}
								}
							}
						}
					}
				}
			}
		}
	}
}
MOTION
Frames: 16
Frame Time: .0083333
0.4811 23.8560 -4.5973 -0.4530 -0.2594 9.5288 0.0000 0.0000 0.0000 -15.6879 -0.1977 -44.7579 9.7446 17.2637 58.6313 0.6268 5.3228 14.0994 0.0222 0.9609 2.6413 0.0000 0.0000 0.0000 18.6070 1.9446 -43.4974 -10.5639 -17.7150 61.3569 -0.5726 -4.9111 13.4696 -0.9988 -6.3600 17.8325 -3.1554 -0.1655 11.3584 1.6195 -0.5140 3.4474 3.5370 -0.2572 -2.7191 -2.4380 0.5142 -10.8612 0.3909 1.1362 25.3277 0.6820 0.3346 9.7881 0.0000 -0.0000 0.0000 -81.2388 -3.6881 32.4500 7.9771 -13.5157 -0.9468 -0.0000 0.0000 -15.4146 22.3403 -3.9391 -1.6171 -7.1250 0.0000 -0.0000 -3.2435 25.7207 1.5168 0.0000 -0.0000 0.0000 83.8006 2.1340 16.9234 -12.8724 21.1000 -2.4072 0.0000 0.0000 39.5450 -18.6459 -22.6745 7.4113 7.1250 -0.0000 -0.0000 10.8039 -53.4512 -2.2662
0.4844 23.7500 -4.4623 -0.4748 -0.3218 9.6296 0.0000 0.0000 0.0000 -15.7549 -0.2672 -45.1139 9.1995 16.9344 56.7776 0.6340 5.0372 14.1787 0.0151 0.7938 2.1817 0.0000 0.0000 0.0000 18.6808 2.1736 -43.7349 -9.7796 -17.2841 58.7493 -0.5665 -5.1261 13.4002 -1.0011 -6.3670 17.8529 -3.0800 -0.1492 11.5806 1.6026 -0.4903 3.5047 3.4759 -0.2451 -2.7839 -2.3579 0.5348 -10.9571 0.3267 1.1670 25.3297 0.6501 0.3490 9.8077 0.0000 -0.0000 0.0000 -81.6668 -3.3057 32.3295 7.8342 -13.2838 -0.9137 -0.0000 0.0000 -15.2651 22.4984 -4.2457 -1.7563 -7.1250 0.0000 -0.0000 -3.1221 25.3849 1.4843 0.0000 -0.0000 0.0000 84.1430 1.8393 16.9656 -12.8180 21.0200 -2.3876 0.0000 0.0000 39.6666 -18.5661 -22.6787 7.3789 7.1250 -0.0000 -0.0000 10.8858 -53.4405 -2.2809
0.4880 23.6320 -4.3229 -0.4736 -0.3928 9.7369 0.0000 0.0000 0.0000 -15.8656 -0.3082 -45.3717 8.6061 16.5475 54.7178 0.6488 4.6786 14.3508 0.0093 0.6239 1.7145 0.0000 0.0000 0.0000 18.7166 2.4048 -43.8756 -8.9736 -16.7907 55.9986 -0.5663 -5.4276 13.4067 -1.0087 -6.3905 17.9216 -3.0268 -0.1371 11.7451 1.5810 -0.4731 3.5587 3.4226 -0.2367 -2.8198 -2.2999 0.5542 -11.0336 0.2825 1.1951 25.3114 0.6283 0.3624 9.8161 0.0000 0.0000 0.0000 -82.0700 -2.8881 32.2397 7.6921 -13.0525 -0.8813 -0.0000 0.0000 -15.0113 22.7238 -4.6689 -1.9524 -7.1250 0.0000 -0.0000 -2.9516 24.9197 1.4350 0.0000 0.0000 0.0000 84.4507 1.4930 17.1501 -12.8164 21.0176 -2.3870 0.0000 0.0000 39.6438 -18.5243 -22.6850 7.3632 7.1250 -0.0000 -0.0000 10.9304 -53.4393 -2.2901
0.4919 23.5018 -4.1787 -0.4507 -0.4669 9.8601 0.0000 0.0000 0.0000 -16.0169 -0.3286 -45.5383 7.9730 16.0993 52.4652 0.6699 4.2646 14.6064 0.0050 0.4557 1.2522 0.0000 0.0000 0.0000 18.7173 2.6296 -43.9351 -8.1560 -16.2328 53.1227 -0.5740 -5.7778 13.5137 -1.0146 -6.4087 17.9749 -2.9946 -0.1282 11.8346 1.5588 -0.4606 3.6049 3.3802 -0.2311 -2.8221 -2.2649 0.5724 -11.0805 0.2549 1.2209 25.2775 0.6158 0.3748 9.8130 0.0000 0.0000 0.0000 -82.4566 -2.4462 32.1471 7.5527 -12.8252 -0.8501 -0.0000 0.0000 -14.6423 22.9020 -5.0166 -2.1156 -7.1250 0.0000 -0.0000 -2.8187 24.5367 1.3952 0.0000 0.0000 0.0000 84.7187 1.0856 17.4652 -12.8651 21.0893 -2.4045 0.0000 0.0000 39.4629 -18.5208 -22.6919 7.3638 7.1250 -0.0000 -0.0000 10.9367 -53.4455 -2.2931
0.4961 23.3592 -4.0296 -0.4162 -0.5359 10.0050 0.0000 0.0000 0.0000 -16.1955 -0.3381 -45.6199 7.3093 15.5869 50.0348 0.6978 3.8138 14.9500 0.0020 0.2902 0.7974 0.0000 0.0000 0.0000 18.6948 2.8401 -43.9264 -7.3386 -15.6105 50.1435 -0.5923 -6.1457 13.7475 -1.0104 -6.3956 17.9368 -2.9700 -0.1231 11.8376 1.5390 -0.4517 3.6424 3.3440 -0.2280 -2.7856 -2.2452 0.5832 -11.0937 0.2338 1.2368 25.2308 0.6067 0.3820 9.7990 -0.0000 0.0000 0.0000 -82.8301 -1.9895 32.0226 7.4192 -12.6071 -0.8207 -0.0000 0.0000 -14.1791 23.0316 -5.3029 -2.2500 -7.1250 0.0000 -0.0000 -2.7233 24.2212 1.3678 -0.0000 0.0000 0.0000 84.9537 0.6238 17.8563 -12.9556 21.2221 -2.4372 0.0000 0.0000 39.1647 -18.5240 -22.7002 7.3676 7.1250 -0.0000 -0.0000 10.9371 -53.4545 -2.2956
0.5003 23.2041 -3.8751 -0.3728 -0.6026 10.1676 0.0000 0.0000 0.0000 -16.3968 -0.3327 -45.6073 6.6248 15.0076 47.4405 0.7327 3.3547 15.3828 0.0004 0.1222 0.3358 0.0000 0.0000 0.0000 18.6503 3.0348 -43.8488 -6.5336 -14.9263 47.0876 -0.6251 -6.5020 14.1399 -0.9953 -6.3492 17.8012 -2.9511 -0.1188 11.7420 1.5229 -0.4418 3.6771 3.3134 -0.2252 -2.6984 -2.2510 0.5858 -11.0754 0.2310 1.2411 25.1808 0.6068 0.3837 9.7775 -0.0000 -0.0000 0.0000 -83.1940 -1.5441 31.8402 7.2891 -12.3941 -0.7925 -0.0000 0.0000 -13.6680 23.0313 -5.4239 -2.3011 -7.1250 0.0000 -0.0000 -2.7244 24.0901 1.3766 -0.0000 -0.0000 0.0000 85.1596 0.1356 18.2639 -13.0666 21.3847 -2.4775 0.0000 0.0000 38.7992 -18.5231 -22.7044 7.3686 7.1250 -0.0000 -0.0000 10.9397 -53.4587 -2.2973
0.5047 23.0366 -3.7147 -0.3229 -0.6576 10.3502 0.0000 0.0000 0.0000 -16.6132 -0.3255 -45.4939 5.9302 14.3604 44.7011 0.7748 2.9161 15.8984 0.0001 -0.0508 -0.1396 0.0000 0.0000 0.0000 18.5816 3.2070 -43.7094 -5.7549 -14.1865 43.9899 -0.6748 -6.8230 14.7015 -0.9712 -6.2739 17.5814 -2.9283 -0.1132 11.5402 1.5099 -0.4273 3.7000 3.2821 -0.2208 -2.5657 -2.2611 0.5782 -11.0117 0.2268 1.2315 25.1480 0.6053 0.3783 9.7537 0.0000 -0.0000 0.0000 -83.5434 -1.0957 31.6409 7.1629 -12.1871 -0.7657 -0.0000 0.0000 -13.1566 23.0093 -5.4372 -2.3043 -7.1250 0.0000 -0.0000 -2.7408 24.0767 1.3857 0.0000 -0.0000 0.0000 85.3478 -0.3675 18.6007 -13.1723 21.5392 -2.5162 0.0000 0.0000 38.4372 -18.4999 -22.6960 7.3562 7.1250 -0.0000 -0.0000 10.9596 -53.4459 -2.2981
0.5092 22.8568 -3.5476 -0.2681 -0.7040 10.5295 0.0000 0.0000 0.0000 -16.8382 -0.3097 -45.2471 5.2382 13.6471 41.8417 0.8246 2.5269 16.4891 0.0012 -0.2206 -0.6062 0.0000 0.0000 0.0000 18.4831 3.3610 -43.4811 -5.0161 -13.4019 40.8923 -0.7423 -7.1035 15.4208 -0.9514 -6.2115 17.3994 -2.8972 -0.1096 11.2439 1.4950 -0.4122 3.7199 3.2430 -0.2169 -2.3847 -2.2744 0.5681 -10.9275 0.2329 1.2161 25.1583 0.6076 0.3708 9.7413 -0.0000 -0.0000 0.0000 -83.8755 -0.6606 31.3516 7.0348 -11.9764 -0.7388 -0.0000 0.0000 -12.6597 22.8828 -5.3525 -2.2547 -7.1250 0.0000 -0.0000 -2.8345 24.1738 1.4269 -0.0000 -0.0000 0.0000 85.5325 -0.8500 18.8252 -13.2480 21.6496 -2.5441 0.0000 0.0000 38.1476 -18.4582 -22.6880 7.3362 7.1250 -0.0000 -0.0000 10.9982 -53.4301 -2.3021
0.5138 22.6644 -3.3733 -0.2123 -0.7406 10.6908 0.0000 0.0000 0.0000 -17.0576 -0.2912 -44.8461 4.5631 12.8742 38.8993 0.8837 2.2260 17.1521 0.0032 -0.3634 -0.9985 0.0000 0.0000 0.0000 18.3490 3.5070 -43.1441 -4.3307 -12.5879 37.8449 -0.8228 -7.3546 16.2332 -0.9384 -6.1703 17.2794 -2.8540 -0.1108 10.8544 1.4786 -0.4002 3.7412 3.1950 -0.2154 -2.1511 -2.2838 0.5579 -10.8254 0.2448 1.1985 25.2184 0.6111 0.3626 9.7432 0.0000 -0.0000 0.0000 -84.1915 -0.2383 30.9542 6.8959 -11.7478 -0.7103 -0.0000 0.0000 -12.1559 22.7474 -5.2844 -2.2114 -7.1250 0.0000 -0.0000 -2.9351 24.2533 1.4722 0.0000 -0.0000 0.0000 85.7170 -1.2804 18.9077 -13.2703 21.6820 -2.5523 0.0000 0.0000 37.9949 -18.4064 -22.6817 7.3124 7.1250 -0.0000 -0.0000 11.0476 -53.4141 -2.3083
0.5186 22.4590 -3.1917 -0.1573 -0.7666 10.8148 0.0000 0.0000 0.0000 -17.2555 -0.2801 -44.2729 3.9208 12.0542 35.9241 0.9515 2.0620 17.8560 0.0053 -0.4704 -1.2926 0.0000 0.0000 0.0000 18.1659 3.6673 -42.6735 -3.7104 -11.7648 34.9049 -0.9062 -7.6409 17.0386 -0.9366 -6.1645 17.2624 -2.7969 -0.1193 10.3882 1.4588 -0.3949 3.7648 3.1360 -0.2178 -1.8724 -2.2865 0.5536 -10.7194 0.2627 1.1866 25.3525 0.6166 0.3577 9.7708 -0.0000 0.0000 0.0000 -84.4815 0.1663 30.4414 6.7475 -11.5030 -0.6804 -0.0000 0.0000 -11.6679 22.5682 -5.1969 -2.1559 -7.1250 0.0000 -0.0000 -3.0685 24.3553 1.5321 -0.0000 0.0000 0.0000 85.9039 -1.6582 18.8494 -13.2374 21.6340 -2.5401 0.0000 0.0000 38.0015 -18.3597 -22.6814 7.2927 7.1250 -0.0000 -0.0000 11.0944 -53.4053 -2.3158
0.5237 22.2402 -3.0028 -0.1111 -0.7831 10.8782 0.0000 0.0000 0.0000 -17.4144 -0.2760 -43.5154 3.3268 11.2061 32.9781 1.0270 2.0723 18.5712 0.0067 -0.5281 -1.4510 0.0000 0.0000 0.0000 17.9286 3.8600 -42.0425 -3.1643 -10.9565 32.1332 -0.9780 -8.0248 17.7150 -0.9440 -6.1880 17.3310 -2.7153 -0.1376 9.8598 1.4355 -0.3996 3.7971 3.0601 -0.2256 -1.5500 -2.2800 0.5549 -10.6166 0.2811 1.1810 25.5637 0.6220 0.3557 9.8266 -0.0000 0.0000 0.0000 -84.7409 0.5529 29.8015 6.5900 -11.2426 -0.6493 -0.0000 0.0000 -11.1602 22.3555 -5.1163 -2.1004 -7.1250 0.0000 -0.0000 -3.2273 24.4508 1.6045 -0.0000 0.0000 0.0000 86.0951 -1.9656 18.6434 -13.1403 21.4924 -2.5044 0.0000 0.0000 38.1950 -18.3303 -22.6891 7.2826 7.1250 -0.0000 -0.0000 11.1272 -53.4077 -2.3235
0.5291 22.0076 -2.8073 -0.0787 -0.7982 10.8695 0.0000 0.0000 0.0000 -17.5261 -0.2668 -42.5915 2.7947 10.3550 30.1343 1.1048 2.2837 19.2372 0.0070 -0.5389 -1.4808 0.0000 0.0000 0.0000 17.6269 4.1241 -41.2409 -2.6974 -10.1883 29.5888 -1.0245 -8.5728 18.1681 -0.9601 -6.2392 17.4802 -2.6087 -0.1617 9.2872 1.4110 -0.4096 3.8357 2.9691 -0.2361 -1.1962 -2.2726 0.5591 -10.5259 0.3037 1.1793 25.8587 0.6297 0.3551 9.9150 -0.0000 0.0000 0.0000 -84.9611 0.9285 29.0881 6.4340 -10.9841 -0.6193 -0.0000 0.0000 -10.6580 22.1123 -5.0288 -2.0398 -7.1250 0.0000 -0.0000 -3.4090 24.5545 1.6869 -0.0000 0.0000 0.0000 86.2801 -2.2159 18.3275 -12.9896 21.2720 -2.4495 0.0000 0.0000 38.5211 -18.3201 -22.7155 7.2862 7.1250 -0.0000 -0.0000 11.1484 -53.4323 -2.3347
0.5349 21.7615 -2.6063 -0.0521 -0.8115 10.7780 0.0000 0.0000 0.0000 -17.6092 -0.2379 -41.5284 2.3345 9.5306 27.4696 1.1755 2.6824 19.7792 0.0076 -0.5621 -1.5446 0.0000 0.0000 0.0000 17.2499 4.4677 -40.2741 -2.3107 -9.4852 27.3253 -1.0380 -9.3035 18.3638 -0.9872 -6.3241 17.7278 -2.4825 -0.1891 8.6948 1.3847 -0.4235 3.8747 2.8656 -0.2481 -0.8308 -2.2758 0.5602 -10.4452 0.3309 1.1753 26.2333 0.6411 0.3521 10.0345 0.0000 -0.0000 0.0000 -85.1378 1.3136 28.3691 6.2879 -10.7414 -0.5917 -0.0000 0.0000 -10.1592 21.8876 -4.9544 -1.9871 -7.1250 0.0000 -0.0000 -3.5774 24.6431 1.7632 0.0000 -0.0000 0.0000 86.4499 -2.4315 17.9267 -12.8008 20.9947 -2.3815 0.0000 0.0000 38.9296 -18.3330 -22.7565 7.3040 7.1250 -0.0000 -0.0000 11.1524 -53.4760 -2.3475
0.5411 21.5017 -2.4011 -0.0320 -0.8373 10.5910 0.0000 0.0000 0.0000 -17.6829 -0.1468 -40.3689 1.9519 8.7651 25.0632 1.2348 3.2490 20.1827 0.0093 -0.6231 -1.7122 0.0000 0.0000 0.0000 16.8111 4.8998 -39.1535 -2.0011 -8.8684 25.3844 -1.0166 -10.1990 18.3145 -1.0302 -6.4561 18.1137 -2.3383 -0.2125 8.1105 1.3552 -0.4326 3.9120 2.7485 -0.2567 -0.4717 -2.2980 0.5539 -10.3841 0.3715 1.1623 26.6819 0.6602 0.3438 10.1856 -0.0000 0.0000 0.0000 -85.2605 1.7229 27.7226 6.1612 -10.5307 -0.5683 -0.0000 0.0000 -9.6983 21.7073 -4.9516 -1.9680 -7.1250 0.0000 -0.0000 -3.7123 24.6526 1.8291 -0.0000 0.0000 0.0000 86.5980 -2.6438 17.5048 -12.6029 20.7026 -2.3110 0.0000 0.0000 39.3289 -18.3699 -22.8234 7.3398 7.1250 -0.0000 -0.0000 11.1430 -53.5504 -2.3659
0.5478 21.2282 -2.1936 -0.0103 -0.8686 10.3115 0.0000 0.0000 0.0000 -17.7792 0.0278 -39.1699 1.6474 8.0895 22.9861 1.2821 3.9410 20.4675 0.0125 -0.7210 -1.9815 0.0000 0.0000 0.0000 16.3414 5.3715 -37.9290 -1.7630 -8.3540 23.7945 -0.9680 -11.1796 18.0955 -1.0906 -6.6368 18.6439 -2.1794 -0.2275 7.5603 1.3227 -0.4321 3.9326 2.6199 -0.2591 -0.1491 -2.3244 0.5334 -10.3266 0.3996 1.1342 27.1897 0.6744 0.3262 10.3607 -0.0000 0.0000 0.0000 -85.3255 2.1823 27.2564 6.0571 -10.3573 -0.5495 -0.0000 0.0000 -9.2981 21.6968 -5.0428 -2.0031 -7.1250 0.0000 -0.0000 -3.7196 24.5552 1.8411 -0.0000 0.0000 0.0000 86.7199 -2.8740 17.0646 -12.4001 20.4019 -2.2398 0.0000 0.0000 39.6836 -18.4371 -22.8718 7.3829 7.1250 -0.0000 -0.0000 11.0955 -53.6115 -2.3723
0.5550 20.9408 -1.9852 0.0165 -0.9088 9.9375 0.0000 0.0000 0.0000 -17.9207 0.3145 -37.9803 1.4183 7.5316 21.3001 1.3197 4.6930 20.6790 0.0162 -0.8229 -2.2616 0.0000 0.0000 0.0000 15.8882 5.8244 -36.6490 -1.5894 -7.9526 22.5702 -0.9069 -12.1232 17.8131 -1.1698 -6.8653 19.3171 -2.0099 -0.2337 7.0698 1.2848 -0.4220 3.9335 2.4803 -0.2548 0.1200 -2.3646 0.5043 -10.2693 0.4295 1.0966 27.7311 0.6908 0.3027 10.5502 -0.0000 -0.0000 0.0000 -85.3353 2.6911 26.9538 5.9753 -10.2210 -0.5349 -0.0000 0.0000 -8.9788 21.7789 -5.2017 -2.0745 -7.1250 0.0000 -0.0000 -3.6575 24.3816 1.8250 -0.0000 -0.0000 0.0000 86.8127 -3.1452 16.6788 -12.2200 20.1338 -2.1774 0.0000 0.0000 39.9323 -18.5279 -22.9185 7.4356 7.1250 -0.0000 -0.0000 11.0235 -53.6756 -2.3739
